<?xml version="1.0" encoding="UTF-8"?>
<!-- Generator: visioncortex VTracer 0.6.3 -->
<svg version="1.1" xmlns="http://www.w3.org/2000/svg" width="1280" height="216">
<path d="M0 0 C3.06 2.5 3.06 2.5 5 5 C5 5.66 5 6.32 5 7 C5.66 7 6.32 7 7 7 C7.66 9.64 8.32 12.28 9 15 C10.02 15.28 11.04 15.56 12.09 15.85 C15.65 16.87 19.12 18.08 22.6 19.34 C24.45 19.98 26.31 20.63 28.16 21.27 C29.43 21.72 30.7 22.17 31.97 22.64 C38.92 25.63 38.92 25.63 46.05 25.16 C47.84 23.65 47.84 23.65 50 21 C53.17 19.98 55.79 20.14 59 21 C63.29 23.57 66.26 26.52 68.5 31 C69 34 69 34 68.68 37.43 C68.61 41.13 68.61 41.13 71.39 43.23 C72.48 43.88 73.57 44.52 74.69 45.19 C79.97 48.49 84.59 52.09 89.12 56.38 C89.67 56.89 90.21 57.4 90.77 57.93 C92.81 59.86 94.81 61.79 96.7 63.87 C97.13 64.24 97.56 64.61 98 65 C100.77 64.79 100.77 64.79 104 64 C111.84 62.41 111.84 62.41 116.31 64.69 C117.2 65.45 118.09 66.21 119 67 C119.76 67.6 120.53 68.2 121.31 68.81 C124.28 72.66 124.1 76.62 123.75 81.31 C123 84 123 84 120 86 C118.93 87.75 118.93 87.75 119 90 C120.44 92.98 120.44 92.98 122.56 96.06 C123.31 97.22 124.05 98.38 124.79 99.54 C125.17 100.12 125.54 100.7 125.92 101.3 C129.88 107.56 133.39 113.74 135 121 C143.94 119.54 150.82 107.66 156 101 C156.99 99.52 156.99 99.52 158 98 C158.66 98 159.32 98 160 98 C160.37 96.92 160.37 96.92 160.75 95.81 C162 93 162 93 164.19 90.62 C166.34 88.05 166.34 88.05 165.94 84.5 C165.22 81.05 165.22 81.05 163.44 78.69 C161.22 74.55 161.34 70.59 162 66 C164.63 60.74 168.24 57.57 173.31 54.69 C178.06 53.47 182.28 54.2 186.69 56.25 C190.97 59.49 195.6 63.12 196.37 68.67 C196.5 74.68 196.42 78.93 192.51 83.65 C191 85 191 85 187.75 86.56 C184.15 89.76 184.49 91.47 184.19 96.19 C184.15 98.07 184.15 98.07 184.11 99.98 C184 103 184 103 183 104 C183.03 105.67 183.03 105.67 183.06 107.38 C183.17 127.14 172.04 150.12 159.36 164.91 C157.64 167.55 157.54 169.44 157.38 172.56 C157.2 175.68 156.99 178.02 156 181 C155.34 181 154.68 181 154 181 C153.79 181.62 153.59 182.24 153.38 182.88 C152 185 152 185 149.31 186.31 C146 187 146 187 142.5 186.44 C137.07 185.76 134.28 188.02 130.06 191.25 C119.9 198.65 107.06 202.9 95 206 C94.29 206.19 93.57 206.38 92.84 206.57 C85.78 208.22 78.76 208.31 71.55 208.26 C69.5 208.25 67.46 208.26 65.41 208.27 C58.05 208.28 51.14 207.85 44 206 C43.33 205.84 42.67 205.68 41.98 205.51 C31.08 202.7 20.6 198.92 11 193 C9.79 192.3 9.79 192.3 8.56 191.58 C4.44 189.14 4.44 189.14 3 188 C3 187.34 3 186.68 3 186 C2.07 185.81 2.07 185.81 1.12 185.62 C-1 185 -1 185 -3 183 C-5.23 182.93 -7.46 182.97 -9.69 183.06 C-16.73 183.11 -20.93 182.68 -26.38 177.93 C-31.27 173.05 -34.11 169.27 -34.23 162.25 C-33.93 159.32 -33 156.76 -32 154 C-32.41 149.13 -34.14 145.24 -36.31 140.94 C-41.43 130.34 -44.47 119.67 -46 108 C-46.12 107.19 -46.25 106.38 -46.38 105.54 C-48.13 91.6 -47.03 76.43 -43 63 C-42.6 61.59 -42.6 61.59 -42.2 60.14 C-38.61 48.4 -33.57 36.08 -25.45 26.76 C-22.54 23.22 -21.78 20.75 -22.06 16.19 C-22.15 10.84 -21.38 6.57 -17.61 2.5 C-11.82 -2.64 -7.01 -2.57 0 0 Z M5 21 C4.4 21.62 3.8 22.24 3.19 22.88 C0.62 25.37 -1.58 26.07 -5 27 C-5.23 31.79 -5.23 31.79 -3 36 C-2.34 38.46 -1.75 40.9 -1.19 43.38 C0.59 50.86 3.02 57.9 6 65 C6.49 66.17 6.49 66.17 6.98 67.36 C7.64 68.91 8.32 70.46 9 72 C13.33 70.26 13.33 70.26 16.29 66.84 C18.59 63.02 21.51 59.99 24.56 56.75 C25.18 56.09 25.8 55.42 26.43 54.74 C30.81 50.09 35.35 45.94 40.4 42.03 C42.32 40.03 42.32 40.03 41.94 36.94 C40.96 33.87 40.59 32.82 38 31 C28.39 26.38 15.78 21 5 21 Z M-19 28 C-26.8 39.94 -32.99 51.27 -37 65 C-37.32 66.02 -37.64 67.04 -37.98 68.09 C-43.08 87.04 -40.84 108.25 -36 127 C-35.34 127 -34.68 127 -34 127 C-33.88 128.07 -33.75 129.14 -33.62 130.25 C-33.1 133.38 -32.6 135.33 -31 138 C-30.01 138 -29.02 138 -28 138 C-27.99 137.39 -27.99 136.79 -27.98 136.16 C-27.92 129.7 -27.83 123.24 -27.74 116.78 C-27.7 114.39 -27.68 112 -27.65 109.61 C-27.46 90.07 -27.17 69.96 -22 51 C-21.52 48.86 -21.04 46.71 -20.56 44.56 C-19.35 39.23 -17.83 34.15 -16 29 C-16.99 28.67 -17.98 28.34 -19 28 Z M-11 31 C-12.63 35.68 -13.93 40.38 -15.12 45.19 C-15.31 45.9 -15.49 46.61 -15.68 47.34 C-16.42 50.3 -17 52.93 -17 56 C-17.66 56 -18.32 56 -19 56 C-18.67 56.99 -18.34 57.98 -18 59 C-18.19 60.84 -18.46 62.67 -18.78 64.49 C-21.4 80.99 -22.41 97.1 -22.38 113.81 C-22.38 114.79 -22.38 115.77 -22.38 116.78 C-22.38 119.61 -22.36 122.44 -22.34 125.27 C-22.33 126.1 -22.33 126.94 -22.33 127.8 C-22.24 133.71 -21.33 139.24 -20 145 C-19.67 145 -19.34 145 -19 145 C-18.88 144.18 -18.75 143.37 -18.62 142.53 C-17.16 134.12 -14.91 126.19 -12.12 118.12 C-11.8 117.16 -11.47 116.2 -11.13 115.21 C-9.5 110.61 -7.75 106.42 -5.25 102.22 C-3.02 98.4 -2.54 95.79 -2.94 91.31 C-3.21 84.75 -1.68 81.94 2.71 77.13 C4.24 75.1 4.24 75.1 3.75 72.84 C3.46 72.07 3.17 71.3 2.87 70.52 C2.4 69.24 2.4 69.24 1.92 67.93 C1.4 66.6 1.4 66.6 0.88 65.25 C0.39 63.95 0.39 63.95 -0.1 62.62 C-1.32 59.36 -2.56 56.11 -3.84 52.88 C-5.67 48.15 -7.02 43.42 -8.19 38.5 C-8.36 37.77 -8.54 37.05 -8.72 36.3 C-9.15 34.53 -9.58 32.77 -10 31 C-10.33 31 -10.66 31 -11 31 Z M65 44 C64.15 44.49 63.31 44.99 62.44 45.5 C57.51 47.65 53.71 47.47 48.56 46.06 C44.44 45.99 43.92 46.5 40.94 49.12 C39.62 50.41 38.31 51.7 37 53 C35.48 54.21 35.48 54.21 33.94 55.44 C30.24 58.67 27.17 62.26 24 66 C22.69 67.5 21.38 69 20.06 70.5 C19.48 71.17 18.89 71.84 18.29 72.53 C17.65 73.26 17.65 73.26 17 74 C18.52 77.1 20.21 80.04 22 83 C23.34 85.68 22.81 87.46 22.56 90.44 C22.51 98.26 26.07 102.27 31 108 C31.74 108.95 32.49 109.91 33.25 110.89 C37.23 115.95 41.3 120.47 46.27 124.56 C48 126 48 126 49.51 127.67 C51.1 129.35 51.1 129.35 54.44 129.31 C57.64 129.03 59.4 128.8 62 127 C62.33 126.34 62.66 125.68 63 125 C64.01 124.45 65.03 123.89 66.07 123.32 C70.62 120.81 74.15 117.46 77.88 113.88 C78.58 113.21 79.28 112.54 80 111.86 C91.76 101.22 91.76 101.22 100 88 C99.7 85.68 99.05 84.09 97.93 82.04 C96.83 79.62 96.96 78.07 97.06 75.44 C96.47 68.48 91.63 64.62 86.61 60.33 C81.21 55.87 75.62 51.72 69.77 47.87 C67 46 67 46 65 44 Z M-25 65 C-24 67 -24 67 -24 67 Z M15 72 C15 72.66 15 73.32 15 74 C15.66 73.67 16.32 73.34 17 73 C16.34 72.67 15.68 72.34 15 72 Z M172 89 C171.48 89.99 170.97 90.98 170.44 92 C168.25 95.89 165.46 98.98 162.39 102.2 C160.69 104.02 160.69 104.02 161 107 C159.12 108.06 159.12 108.06 157 109 C156.34 108.67 155.68 108.34 155 108 C154.82 109.02 154.64 110.03 154.46 111.08 C153.05 116.05 149.49 118.45 145.69 121.69 C140.65 126.13 140.65 126.13 138.64 132.26 C139.46 135.4 140.57 138.09 142 141 C142.54 142.55 143.07 144.12 143.56 145.69 C143.94 146.75 143.94 146.75 144.32 147.83 C145.05 150.16 145.5 152.47 145.94 154.88 C146.57 157.97 146.78 158.78 149.12 161.06 C150.05 161.53 150.05 161.53 151 162 C154.51 160.1 156.94 158.46 159 155 C159 154.01 159 153.02 159 152 C159.66 152 160.32 152 161 152 C170.08 136.98 174.2 122.1 177 105 C177.33 105 177.66 105 178 105 C178.05 103.27 178.09 101.54 178.12 99.81 C178.15 98.85 178.17 97.89 178.2 96.89 C177.99 93.87 177.27 91.73 176 89 C174.68 89 173.36 89 172 89 Z M102.69 93.19 C101.67 94.88 100.68 96.59 99.72 98.31 C97.71 101.45 95.35 104.11 92.81 106.81 C92.33 107.33 91.84 107.85 91.34 108.39 C89.9 109.93 88.45 111.47 87 113 C86.21 113.83 85.42 114.67 84.61 115.52 C79.41 120.86 79.41 120.86 76 122 C75.32 122.93 75.32 122.93 74.62 123.88 C72.69 126.41 70.75 127.38 68 129 C65.61 130.93 63.3 132.95 61 135 C62.22 138.65 63 138.81 66.31 140.5 C68.76 141.76 70.94 142.95 73.12 144.64 C75.53 146.38 77.1 146.24 80 146 C80 145.34 80 144.68 80 144 C91.52 142.48 91.52 142.48 97 145 C97 145.66 97 146.32 97 147 C103.02 147.73 106.37 145.38 111.19 142.19 C111.9 141.74 112.61 141.28 113.34 140.82 C117.16 138.39 117.16 138.39 120.54 135.41 C122 134 122 134 125 133 C126.02 132.02 127.02 131.02 128 130 C128.66 129.67 129.32 129.34 130 129 C129.55 122.37 128.27 117.42 125.31 111.5 C124.96 110.76 124.6 110.03 124.23 109.27 C121.57 103.87 118.57 98.85 115 94 C114.34 93.01 113.68 92.02 113 91 C107.25 90.15 107.25 90.15 102.69 93.19 Z M101 93 C102 95 102 95 102 95 Z M13 100 C11.13 100.07 9.25 100.08 7.38 100.06 C6.37 100.05 5.37 100.04 4.34 100.04 C3.57 100.02 2.79 100.01 2 100 C-3.45 110.27 -7.57 121.08 -10.94 132.19 C-11.16 132.91 -11.38 133.62 -11.61 134.36 C-13.04 139.2 -13.04 139.2 -12 144 C-11.17 144.02 -10.35 144.04 -9.5 144.06 C-5.72 145.07 -4.89 145.92 -2.25 148.62 C0.66 151.27 2.39 152.57 6.38 152.38 C13.8 151.04 20.88 147.76 27.82 144.88 C30.01 144 32.21 143.19 34.43 142.4 C37.99 141.28 37.99 141.28 40 139 C41.18 138.55 42.35 138.09 43.56 137.62 C47.02 136.41 47.02 136.41 47.96 134.17 C48.22 131.86 48.22 131.86 46.45 129.93 C45.68 129.2 44.91 128.48 44.12 127.73 C43.28 126.93 42.44 126.12 41.58 125.29 C40.69 124.45 39.79 123.61 38.88 122.75 C32.95 117.15 28.16 112.02 24 105 C23.34 105 22.68 105 22 105 C21.66 103.79 21.66 103.79 21.31 102.56 C20.25 99.77 20.25 99.77 17.5 99.12 C15 98.79 15 98.79 13 100 Z M160 101 C160.66 101.66 161.32 102.32 162 103 C162 102.34 162 101.68 162 101 C161.34 101 160.68 101 160 101 Z M158 104 C158 104.66 158 105.32 158 106 C158.66 105.67 159.32 105.34 160 105 C159.34 104.67 158.68 104.34 158 104 Z M126 136 C126 136.99 126 137.98 126 139 C121.07 143.14 115.59 145.77 109.82 148.57 C106.67 150.17 103.86 151.93 101 154 C101.33 155.65 101.66 157.3 102 159 C105.49 160.19 109 161.35 112.5 162.5 C113.48 162.83 114.46 163.17 115.48 163.51 C121.2 165.38 125.97 166.59 132 166 C134.25 164.25 134.25 164.25 136 162 C137.64 160.96 139.3 159.94 141 159 C140.17 154.6 139.1 150.27 138 145.94 C137.82 145.23 137.64 144.52 137.46 143.79 C136.97 141.86 136.49 139.93 136 138 C135.67 136.67 135.33 135.33 135 134 C131.85 134 129.01 135.11 126 136 Z M46.5 142.75 C41.02 146.03 35.73 148.36 29.59 150.21 C26.82 151 26.82 151 23.56 152.5 C18.18 154.77 12.59 156.34 7 158 C7.38 161.29 7.38 161.29 9 164 C11.74 164.02 14.45 163.97 17.19 163.88 C18.01 163.86 18.83 163.83 19.68 163.81 C22.3 163.73 24.93 163.65 27.56 163.56 C29.34 163.51 31.12 163.46 32.9 163.4 C37.26 163.27 41.63 163.14 46 163 C46 162.67 46 162.34 46 162 C47.26 161.82 48.51 161.64 49.8 161.45 C62.6 159.57 62.6 159.57 75 156 C75.38 153.62 75.38 153.62 75 151 C73.09 149.29 73.09 149.29 70.5 148.06 C66.23 145.73 62.53 143.2 58.79 140.1 C54.13 137.23 50.48 140.27 46.5 142.75 Z M70.99 163.32 C56.09 167.23 41.33 168.37 26 169 C26.33 169.99 26.66 170.98 27 172 C28.75 172.72 28.75 172.72 30.91 173.03 C32.13 173.26 32.13 173.26 33.38 173.5 C34.24 173.66 35.11 173.83 36 174 C37.71 174.41 39.42 174.82 41.12 175.25 C41.99 175.47 42.87 175.68 43.77 175.9 C45.54 176.34 47.32 176.79 49.1 177.23 C54.4 178.53 59.54 179.37 64.99 179.77 C67 180 67 180 69 181 C71.25 181.09 73.5 181.11 75.76 181.1 C76.42 181.1 77.08 181.09 77.77 181.09 C79.89 181.09 82.01 181.08 84.12 181.06 C85.56 181.06 87 181.05 88.43 181.05 C91.96 181.04 95.48 181.02 99 181 C99 180.67 99 180.34 99 180 C99.7 179.92 100.39 179.84 101.11 179.76 C104.28 179.39 107.45 179.01 110.62 178.62 C111.72 178.5 112.81 178.37 113.94 178.24 C119.18 177.61 124.07 176.99 129 175 C129 174.34 129 173.68 129 173 C128.31 172.82 127.62 172.64 126.91 172.45 C119.54 170.48 112.2 168.5 105.25 165.31 C102.1 164.04 100.33 163.46 97 164 C95.65 164.97 94.31 165.97 93 167 C88.76 168.45 86.06 167.78 82 166 C80.3 164.71 78.62 163.39 77 162 C74.94 162 72.97 162.79 70.99 163.32 Z M6 170 C3.52 173.47 3.52 173.47 1 177 C2.96 181.36 5.26 183.83 9.55 185.94 C10.23 186.28 10.91 186.61 11.61 186.96 C12.32 187.3 13.02 187.65 13.75 188 C14.44 188.34 15.13 188.69 15.84 189.04 C43 202.41 73.44 206.6 102.58 196.96 C110.11 194.35 116.99 191.11 123.91 187.17 C126.56 185.68 129.27 184.33 132 183 C125.27 180.76 117.45 183.05 110.66 184.5 C90.67 188.27 65.68 188.29 46.24 181.71 C43.9 180.97 41.61 180.5 39.19 180.06 C30.39 178.39 22.03 175.62 13.95 171.82 C11.35 170.73 8.79 170.29 6 170 Z " fill="#199293" transform="translate(52,8)"/>
<path d="M0 0 C7.02 5.06 9.37 12.69 12.06 20.56 C12.45 21.67 12.84 22.78 13.24 23.92 C15.89 31.5 18.43 39.11 20.94 46.73 C23.53 54.57 26.28 62.35 29.06 70.12 C29.5 71.36 29.95 72.6 30.4 73.87 C32.33 79.5 32.33 79.5 34.69 84.94 C35.04 83.83 35.4 82.72 35.77 81.58 C37.43 76.45 39.09 71.32 40.75 66.19 C41.05 65.27 41.35 64.35 41.65 63.4 C45.19 52.5 48.77 41.63 52.63 30.84 C54.61 25.28 56.31 19.68 57.69 13.94 C58.35 13.94 59.01 13.94 59.69 13.94 C59.42 13.22 59.15 12.49 58.88 11.75 C58.69 8.94 58.69 8.94 60.75 6.38 C61.72 5.57 62.69 4.77 63.69 3.94 C64.49 3.24 65.29 2.54 66.12 1.82 C70.83 -1.26 76.33 -0.62 81.76 -0.58 C82.98 -0.59 84.19 -0.59 85.44 -0.6 C88.75 -0.62 92.06 -0.61 95.37 -0.6 C98.84 -0.59 102.32 -0.6 105.79 -0.61 C111.62 -0.61 117.44 -0.6 123.27 -0.58 C130 -0.56 136.74 -0.57 143.47 -0.59 C149.26 -0.61 155.04 -0.61 160.83 -0.6 C164.29 -0.6 167.74 -0.59 171.19 -0.61 C175.04 -0.62 178.89 -0.6 182.74 -0.58 C184.45 -0.59 184.45 -0.59 186.2 -0.6 C193.91 -0.52 193.91 -0.52 197.85 1.8 C201.28 5.79 201.9 9.43 201.56 14.56 C201.12 17.64 200.77 18.82 198.88 21.38 C194.27 24.66 191.25 25.18 185.52 25.13 C184.83 25.13 184.15 25.13 183.45 25.12 C181.28 25.11 179.11 25.09 176.94 25.06 C175.46 25.05 173.99 25.04 172.51 25.04 C168.9 25.01 165.3 24.98 161.69 24.94 C161.71 26.61 161.71 26.61 161.73 28.31 C161.85 38.8 161.94 49.29 162 59.78 C162.03 65.17 162.07 70.56 162.14 75.96 C162.21 81.16 162.24 86.37 162.26 91.58 C162.27 93.56 162.29 95.55 162.32 97.53 C162.37 100.31 162.37 103.1 162.37 105.88 C162.39 106.7 162.41 107.51 162.43 108.36 C162.38 113.77 161 116.62 157.37 120.63 C153.26 123.83 147.65 123.28 142.69 122.94 C138.66 121.86 136.33 120.15 133.69 116.94 C132.38 112.82 132.55 108.68 132.57 104.41 C132.57 103.55 132.57 102.69 132.57 101.8 C132.57 98.97 132.58 96.13 132.59 93.3 C132.59 91.33 132.59 89.36 132.59 87.4 C132.6 82.22 132.61 77.04 132.62 71.87 C132.63 65.66 132.64 59.45 132.64 53.24 C132.65 43.8 132.67 34.37 132.69 24.94 C109.42 25.43 109.42 25.43 85.69 25.94 C79.19 42.15 72.71 58.36 66.34 74.62 C62.4 84.68 58.42 94.72 54.25 104.69 C53.88 105.59 53.51 106.5 53.13 107.43 C50.59 113.47 48.21 118.99 42.24 122.29 C36.08 123.85 29.95 123.6 23.88 121.81 C15.31 115.88 11.18 99.15 7.44 89.73 C6.14 86.47 4.84 83.23 3.53 79.98 C2.87 78.33 2.2 76.68 1.54 75.02 C-1.42 67.64 -4.45 60.29 -7.5 52.94 C-7.97 51.79 -8.45 50.64 -8.94 49.46 C-11.22 43.95 -13.52 38.44 -15.86 32.95 C-16.99 30.28 -18.12 27.6 -19.25 24.93 C-19.78 23.66 -20.33 22.39 -20.87 21.12 C-21.63 19.37 -22.37 17.61 -23.11 15.85 C-23.54 14.85 -23.96 13.85 -24.4 12.82 C-25.39 9.71 -25.48 7.18 -25.31 3.94 C-24.63 3.67 -23.95 3.4 -23.25 3.12 C-20.23 1.95 -20.23 1.95 -17.12 0.31 C-11.53 -2.08 -5.72 -1.83 0 0 Z " fill="#32C047" transform="translate(320.3125,46.0625)"/>
<path d="M0 0 C6.02 4.72 11.42 9.88 12.63 17.69 C12.98 22.14 12.56 24.96 9.75 28.5 C6.56 31.74 3.66 33.34 -0.69 34.62 C-3.4 34.36 -4.44 33.88 -6.36 31.92 C-6.9 31.22 -7.44 30.53 -8 29.81 C-13.81 22.9 -21.55 19.42 -30.47 18.27 C-38.58 17.88 -45.48 19.95 -52.69 23.62 C-53.71 24.6 -54.72 25.6 -55.69 26.62 C-56.35 26.62 -57.01 26.62 -57.69 26.62 C-57.95 27.16 -58.22 27.7 -58.5 28.26 C-59.37 29.99 -60.26 31.71 -61.16 33.43 C-61.68 34.44 -62.21 35.46 -62.75 36.5 C-63.28 37.51 -63.8 38.52 -64.35 39.55 C-68.34 48.7 -68.01 61.26 -64.69 70.62 C-60.89 79.38 -55.32 85.77 -46.68 89.9 C-38.31 92.95 -28.02 92.86 -19.75 89.6 C-13.41 86.6 -9.14 83.82 -5.69 77.62 C-6.02 76.97 -6.35 76.31 -6.69 75.62 C-1.69 74.46 2.08 74 6.62 76.69 C11.19 80 13.91 83.26 14.88 88.94 C13.49 97.98 7.56 104.62 0.47 110.03 C-14.41 120.04 -33.32 120.33 -50.58 118.13 C-57.08 116.62 -62.94 113.99 -68.69 110.62 C-69.51 110.16 -70.33 109.69 -71.18 109.2 C-85.4 100.25 -92.53 85.37 -96.69 69.62 C-100.39 52.72 -97.17 33.43 -87.88 18.88 C-82.15 10.92 -76.21 4.55 -67.69 -0.38 C-67.08 -0.74 -66.46 -1.11 -65.83 -1.49 C-46.46 -12.19 -18.71 -12.29 0 0 Z " fill="#006DC6" transform="translate(614.6875,51.375)"/>
<path d="M0 0 C6.37 5.58 10.62 12.64 12 21 C12.09 23.18 12.12 25.36 12.11 27.53 C12.11 29.49 12.11 29.49 12.11 31.48 C12.11 32.89 12.1 34.3 12.1 35.71 C12.1 37.16 12.09 38.61 12.09 40.06 C12.09 43.86 12.08 47.67 12.07 51.47 C12.06 55.36 12.05 59.25 12.05 63.14 C12.04 70.76 12.02 78.38 12 86 C6.79 88.8 1.82 88.61 -4 88 C-9.67 85.53 -12.12 81.24 -15 76 C-15.53 76.53 -16.07 77.06 -16.62 77.61 C-26 86.5 -35.42 89.32 -48.2 89.15 C-57.57 88.65 -64.87 85.63 -71.31 78.69 C-76.39 72.28 -78.58 64.17 -78 56 C-76.61 53.88 -76.61 53.88 -75 52 C-74.44 50.89 -73.89 49.77 -73.31 48.62 C-71.21 44.81 -68.35 42.7 -64.8 40.26 C-62.87 38.99 -62.87 38.99 -61 37 C-60.01 37 -59.02 37 -58 37 C-56.79 36.5 -56.79 36.5 -55.56 36 C-53 35 -53 35 -49 35 C-48.67 34.34 -48.34 33.68 -48 33 C-45.27 32.51 -42.63 32.15 -39.88 31.88 C-38.67 31.75 -38.67 31.75 -37.44 31.62 C-29.95 30.88 -22.53 30.8 -15 31 C-16.14 25.47 -17.37 21.48 -21 17 C-27.56 13.02 -35.58 13.61 -42.8 15.25 C-45.75 16.25 -47.75 17.89 -50 20 C-50.66 20 -51.32 20 -52 20 C-52.29 20.78 -52.58 21.57 -52.88 22.38 C-54 25 -54 25 -56 27 C-61.84 27.7 -66.23 26.28 -71 23 C-73.85 18.72 -73.86 15.02 -73 10 C-69.14 2.42 -62.81 -2.16 -55 -5.12 C-37.61 -10.23 -15.42 -10.36 0 0 Z M-48 52 C-50.55 55.48 -51.01 57.31 -50.94 61.62 C-49.9 65.36 -49.07 66.7 -46 69 C-40.99 71.79 -35.84 71.8 -30.44 70.28 C-23.97 67.9 -20.08 65.09 -16.19 59.31 C-14.58 54.82 -14.75 50.72 -15 46 C-32.34 45.39 -32.34 45.39 -48 52 Z " fill="#006DC6" transform="translate(710,81)"/>
<path d="M0 0 C1.32 0.41 1.32 0.41 2.66 0.82 C4.78 1.53 6.88 2.29 8.96 3.08 C12.2 4.25 15.22 5.28 18.62 5.81 C21.94 3.66 21.94 3.66 24.62 0.81 C27.81 -0.1 30.43 -0.04 33.62 0.81 C37.92 3.38 40.89 6.34 43.12 10.81 C43.62 13.81 43.62 13.81 43.3 17.24 C43.24 20.95 43.24 20.95 46.01 23.04 C47.1 23.69 48.19 24.33 49.31 25 C54.6 28.31 59.22 31.91 63.75 36.19 C64.29 36.7 64.84 37.21 65.4 37.74 C67.43 39.67 69.44 41.61 71.33 43.68 C71.76 44.05 72.18 44.43 72.62 44.81 C75.39 44.6 75.39 44.6 78.62 43.81 C86.47 42.22 86.47 42.22 90.94 44.5 C92.27 45.64 92.27 45.64 93.62 46.81 C94.39 47.41 95.15 48.01 95.94 48.62 C98.9 52.47 98.73 56.43 98.38 61.12 C97.62 63.81 97.62 63.81 94.62 65.81 C93.55 67.56 93.55 67.56 93.62 69.81 C95.06 72.79 95.06 72.79 97.19 75.88 C97.93 77.03 98.68 78.19 99.42 79.36 C99.79 79.93 100.16 80.51 100.55 81.11 C104.51 87.37 108.01 93.55 109.62 100.81 C118.56 99.35 125.44 87.47 130.62 80.81 C131.62 79.33 131.62 79.33 132.62 77.81 C133.28 77.81 133.94 77.81 134.62 77.81 C135 76.73 135 76.73 135.38 75.62 C136.62 72.81 136.62 72.81 138.81 70.44 C140.97 67.86 140.97 67.86 140.56 64.31 C139.84 60.86 139.84 60.86 138.06 58.5 C135.85 54.36 135.96 50.4 136.62 45.81 C139.26 40.55 142.87 37.38 147.94 34.5 C152.69 33.29 156.9 34.01 161.31 36.06 C165.59 39.3 170.23 42.93 171 48.48 C171.13 54.49 171.04 58.74 167.13 63.46 C165.63 64.81 165.63 64.81 162.38 66.38 C158.77 69.57 159.11 71.28 158.81 76 C158.77 77.88 158.77 77.88 158.73 79.79 C158.62 82.81 158.62 82.81 157.62 83.81 C157.66 85.48 157.66 85.48 157.69 87.19 C157.79 106.96 146.67 129.93 133.98 144.73 C132.27 147.36 132.16 149.26 132 152.38 C131.82 155.5 131.62 157.83 130.62 160.81 C129.97 160.81 129.31 160.81 128.62 160.81 C128.42 161.43 128.21 162.05 128 162.69 C126.62 164.81 126.62 164.81 123.94 166.12 C120.62 166.81 120.62 166.81 117.12 166.25 C111.65 165.57 108.83 167.9 104.56 171.12 C99.64 174.76 91.84 179.81 85.62 179.81 C85.13 176.35 85.13 176.35 84.62 172.81 C86.08 172.22 86.08 172.22 87.56 171.62 C93.2 169.21 98.53 166.21 103.62 162.81 C98.19 163.21 92.88 163.68 87.56 164.88 C82.55 165.96 77.73 166.01 72.62 165.81 C72.62 165.48 72.62 165.15 72.62 164.81 C74.61 164.81 76.58 164.81 78.62 164.81 C78.62 163.49 78.62 162.17 78.62 160.81 C76.97 160.81 75.32 160.81 73.62 160.81 C73.3 160.15 72.97 159.49 72.62 158.81 C73.38 158.73 74.13 158.64 74.9 158.55 C78.29 158.16 81.68 157.77 85.06 157.38 C86.25 157.24 87.43 157.11 88.65 156.97 C89.78 156.83 90.9 156.7 92.06 156.57 C93.62 156.39 93.62 156.39 95.22 156.2 C97.57 156.06 97.57 156.06 98.62 154.81 C100.29 154.77 101.96 154.77 103.62 154.81 C103.62 154.15 103.62 153.49 103.62 152.81 C102.97 152.81 102.31 152.81 101.62 152.81 C101.52 152.03 101.42 151.25 101.31 150.44 C100.85 147.48 100.85 147.48 97.62 145.81 C100.59 145.81 103.56 145.81 106.62 145.81 C107.28 144.49 107.94 143.17 108.62 141.81 C111.75 140.06 111.75 140.06 114.62 138.81 C113.79 134.4 112.76 130.05 111.69 125.69 C111.43 124.61 111.43 124.61 111.17 123.52 C110.34 120.15 109.57 117.73 107.62 114.81 C104.5 115.79 102.71 116.73 100.38 119.06 C96.89 122.55 93.06 125.61 88.62 127.81 C87.63 127.48 86.64 127.15 85.62 126.81 C85.3 125.82 84.97 124.83 84.62 123.81 C87.41 120.94 90.26 118.17 93.25 115.5 C93.82 114.99 94.39 114.48 94.98 113.95 C96.62 112.81 96.62 112.81 99.62 112.81 C100.12 111.33 100.12 111.33 100.62 109.81 C102.69 109.12 102.69 109.12 104.62 108.81 C103.47 102.53 101.67 97.05 98.88 91.31 C98.52 90.58 98.17 89.84 97.81 89.08 C95.17 83.67 92.15 78.7 88.62 73.81 C88.3 73.15 87.97 72.49 87.62 71.81 C85.73 71.35 85.73 71.35 83.56 71.19 C81.61 71 81.61 71 79.62 70.81 C79.3 71.47 78.97 72.13 78.62 72.81 C78.01 72.48 77.39 72.15 76.75 71.81 C74.71 70.67 74.71 70.67 72.62 70.81 C72.85 69.93 73.08 69.04 73.31 68.12 C73.96 64.85 73.96 64.85 72.25 62.56 C70.46 59.54 70.55 58.52 70.56 55.12 C70.09 49.04 66.95 46.25 62.58 42.26 C57.73 38.25 52.73 34.49 47.62 30.81 C46.04 29.63 44.45 28.44 42.88 27.25 C42.24 26.77 41.61 26.3 40.95 25.81 C40.51 25.48 40.08 25.15 39.62 24.81 C38.78 25.31 37.93 25.8 37.06 26.31 C32.13 28.46 28.34 28.28 23.19 26.88 C18.97 26.8 18.41 27.47 15.38 30.19 C14.41 31.16 14.41 31.16 13.42 32.15 C11.62 33.81 11.62 33.81 8.62 34.81 C8.62 33.82 8.62 32.83 8.62 31.81 C7.64 31.48 6.64 31.15 5.62 30.81 C7.06 27.32 8.79 25.77 11.81 23.56 C14.85 21.14 14.85 21.14 15.93 17.58 C15.64 15.12 15.64 15.12 14.62 11.81 C13.98 11.63 13.34 11.45 12.68 11.26 C8.63 10.08 4.66 8.92 0.81 7.19 C-1.98 5.98 -4.39 5.27 -7.38 4.81 C-7.38 3.16 -7.38 1.51 -7.38 -0.19 C-3.99 -1.32 -3.27 -1.07 0 0 Z M146.62 68.81 C146.11 69.8 145.59 70.79 145.06 71.81 C142.87 75.7 140.08 78.79 137.02 82.02 C135.32 83.83 135.32 83.83 135.62 86.81 C133.75 87.88 133.75 87.88 131.62 88.81 C130.97 88.48 130.31 88.15 129.62 87.81 C129.45 88.83 129.27 89.85 129.08 90.89 C127.67 95.86 124.12 98.26 120.31 101.5 C115.27 105.95 115.27 105.95 113.27 112.07 C114.09 115.21 115.19 117.9 116.62 120.81 C117.17 122.37 117.69 123.93 118.19 125.5 C118.56 126.56 118.56 126.56 118.95 127.64 C119.68 129.98 120.12 132.28 120.56 134.69 C121.2 137.79 121.4 138.6 123.75 140.88 C124.68 141.34 124.68 141.34 125.62 141.81 C129.13 139.92 131.57 138.27 133.62 134.81 C133.62 133.82 133.62 132.83 133.62 131.81 C134.28 131.81 134.94 131.81 135.62 131.81 C144.71 116.79 148.83 101.91 151.62 84.81 C151.95 84.81 152.28 84.81 152.62 84.81 C152.68 83.08 152.72 81.35 152.75 79.62 C152.77 78.66 152.8 77.7 152.82 76.71 C152.62 73.68 151.89 71.54 150.62 68.81 C149.31 68.81 147.99 68.81 146.62 68.81 Z M134.62 80.81 C135.28 81.47 135.94 82.13 136.62 82.81 C136.62 82.15 136.62 81.49 136.62 80.81 C135.97 80.81 135.31 80.81 134.62 80.81 Z M132.62 83.81 C132.62 84.47 132.62 85.13 132.62 85.81 C133.28 85.48 133.94 85.15 134.62 84.81 C133.97 84.48 133.31 84.15 132.62 83.81 Z " fill="#22A675" transform="translate(77.375,28.1875)"/>
<path d="M0 0 C3.9 2.93 5.97 6.28 7.5 10.88 C7.6 12.41 7.64 13.95 7.65 15.49 C7.65 16.44 7.66 17.39 7.67 18.36 C7.67 19.92 7.67 19.92 7.68 21.51 C7.68 22.6 7.69 23.7 7.7 24.83 C7.72 28.45 7.73 32.08 7.74 35.71 C7.74 36.95 7.75 38.19 7.75 39.46 C7.77 45.33 7.78 51.21 7.79 57.08 C7.8 63.86 7.83 70.63 7.87 77.41 C7.9 83.28 7.91 89.15 7.92 95.02 C7.92 97.52 7.93 100.01 7.95 102.51 C7.98 106 7.98 109.49 7.97 112.98 C7.98 114.02 8 115.05 8.01 116.12 C7.98 120.55 7.96 123.13 5.61 126.97 C1.35 130.82 -2.72 131.27 -8.29 131.12 C-11.58 130.75 -13.78 129.75 -16.5 127.88 C-19.02 124.36 -19.87 121.94 -19.86 117.64 C-19.86 116.61 -19.87 115.58 -19.87 114.51 C-19.86 113.39 -19.85 112.26 -19.84 111.11 C-19.84 109.32 -19.84 109.32 -19.84 107.5 C-19.84 104.24 -19.83 100.99 -19.8 97.73 C-19.79 94.33 -19.78 90.92 -19.78 87.51 C-19.77 81.07 -19.75 74.62 -19.72 68.18 C-19.68 60.84 -19.67 53.5 -19.65 46.16 C-19.62 31.06 -19.57 15.97 -19.5 0.88 C-13.44 -2.38 -6.47 -2.08 0 0 Z " fill="#006DC6" transform="translate(800.5,38.125)"/>
<path d="M0 0 C1.12 -0.01 2.25 -0.01 3.41 -0.02 C7.22 0.31 9.33 1 11.95 3.8 C12.36 4.38 12.77 4.96 13.19 5.56 C13.6 6.14 14.02 6.71 14.45 7.3 C16.43 10.97 16.63 14.88 16.64 18.99 C16.65 20.38 16.65 20.38 16.66 21.8 C16.66 22.8 16.66 23.8 16.66 24.84 C16.67 25.9 16.67 26.97 16.68 28.07 C16.69 31.59 16.7 35.1 16.7 38.62 C16.71 41.07 16.71 43.52 16.72 45.97 C16.73 51.09 16.74 56.22 16.74 61.35 C16.75 67.92 16.77 74.5 16.8 81.07 C16.82 86.12 16.82 91.18 16.82 96.23 C16.83 98.65 16.83 101.08 16.85 103.5 C16.86 106.89 16.86 110.28 16.86 113.66 C16.87 114.67 16.87 115.67 16.88 116.7 C16.85 123.03 16.1 126.65 11.5 131.25 C6.29 133.25 0.87 132.68 -4.31 131.06 C-7.85 129.05 -8.75 127.85 -10.5 124.25 C-10.87 121.73 -10.87 121.73 -10.86 119.02 C-10.86 117.98 -10.87 116.95 -10.87 115.89 C-10.86 114.76 -10.85 113.64 -10.84 112.48 C-10.84 110.7 -10.84 110.7 -10.84 108.88 C-10.84 105.62 -10.83 102.36 -10.8 99.11 C-10.79 95.7 -10.78 92.3 -10.78 88.89 C-10.77 82.44 -10.75 76 -10.72 69.55 C-10.68 62.21 -10.67 54.87 -10.65 47.53 C-10.62 32.44 -10.57 17.34 -10.5 2.25 C-6.83 0.25 -4.2 -0.02 0 0 Z " fill="#006DC6" transform="translate(747.5,36.75)"/>
<path d="M0 0 C0.33 0 0.66 0 1 0 C1.33 1.65 1.66 3.3 2 5 C3.32 5 4.64 5 6 5 C6.03 7.21 6.05 9.42 6.06 11.62 C6.07 12.85 6.09 14.08 6.1 15.35 C6 19 6 19 5.5 21.59 C4.83 26.13 4.86 30.57 4.87 35.15 C4.87 36.12 4.87 37.09 4.86 38.09 C4.86 40.14 4.87 42.19 4.87 44.24 C4.87 47.36 4.87 50.48 4.86 53.59 C4.86 55.59 4.87 57.59 4.87 59.59 C4.87 60.51 4.86 61.43 4.86 62.39 C4.88 67.68 5.23 72.76 6 78 C6.99 73.71 7.98 69.42 9 65 C10.98 65.33 12.96 65.66 15 66 C15.08 70.16 14.98 73.95 14 78 C15.24 78.03 15.24 78.03 16.5 78.06 C20.84 79.23 22.82 81.33 26.04 84.36 C28.49 86.41 30.96 87.11 34 88 C35.16 91.48 34.71 93.46 34 97 C36.31 97.66 38.62 98.32 41 99 C41.5 102.96 41.5 102.96 42 107 C38.7 106.67 35.4 106.34 32 106 C30.68 107.98 29.36 109.96 28 112 C29.49 115.92 31.42 116.96 35 119 C36.03 119.63 37.07 120.26 38.13 120.9 C45.58 125.32 52.63 128.6 61 131 C62.23 131.41 62.23 131.41 63.48 131.83 C84.08 138.65 108.55 137.88 128.96 130.59 C133.72 128.91 133.72 128.91 137 130 C138 133 138 133 137 136 C134.5 137.01 132.14 137.82 129.56 138.56 C128.55 138.87 128.55 138.87 127.52 139.19 C125.36 139.84 123.19 140.43 121 141 C120.27 141.19 119.53 141.39 118.78 141.59 C111.74 143.23 104.74 143.31 97.55 143.26 C95.5 143.25 93.46 143.26 91.41 143.27 C84.05 143.28 77.14 142.85 70 141 C69.33 140.84 68.67 140.68 67.98 140.51 C57.08 137.7 46.6 133.92 37 128 C35.79 127.3 35.79 127.3 34.56 126.58 C30.44 124.14 30.44 124.14 29 123 C29 122.34 29 121.68 29 121 C28.07 120.81 28.07 120.81 27.12 120.62 C25 120 25 120 23 118 C20.77 117.93 18.54 117.97 16.31 118.06 C9.27 118.11 5.07 117.68 -0.38 112.93 C-5.27 108.05 -8.11 104.27 -8.23 97.25 C-7.93 94.32 -7 91.76 -6 89 C-6.41 84.13 -8.14 80.24 -10.31 75.94 C-15.44 65.33 -18.44 54.67 -20 43 C-20.17 41.99 -20.34 40.98 -20.52 39.95 C-20.91 37.22 -21.21 34.75 -21 32 C-18.69 29.5 -18.69 29.5 -16 28 C-15.34 27.01 -14.68 26.02 -14 25 C-13.94 26.58 -13.94 26.58 -13.89 28.19 C-13.51 36.97 -12.58 45.26 -10.62 53.83 C-10.07 56.66 -9.88 59.13 -10 62 C-9.34 62 -8.68 62 -8 62 C-7.01 65.63 -6.02 69.26 -5 73 C-4.01 73 -3.02 73 -2 73 C-2 72.38 -2.01 71.76 -2.01 71.12 C-2.06 64.57 -2.09 58.01 -2.11 51.45 C-2.12 49.02 -2.13 46.59 -2.15 44.15 C-2.25 29.29 -1.88 14.75 0 0 Z " fill="#0275BC" transform="translate(26,73)"/>
<path d="M0 0 C3.06 2.5 3.06 2.5 5 5 C5 5.66 5 6.32 5 7 C5.66 7 6.32 7 7 7 C7.66 9.64 8.32 12.28 9 15 C10.05 15.29 11.1 15.58 12.19 15.88 C15.23 16.77 18.09 17.76 21 19 C19.52 19.49 19.52 19.49 18 20 C18 21.32 18 22.64 18 24 C17.15 23.86 16.31 23.71 15.44 23.56 C14.3 23.38 13.17 23.19 12 23 C10.8 22.73 9.61 22.46 8.38 22.19 C7.26 22.13 6.15 22.06 5 22 C2.9 23.85 2.9 23.85 1 26 C-2.25 26.75 -2.25 26.75 -5 27 C-4.71 28 -4.43 28.99 -4.13 30.02 C-3.02 33.92 -1.94 37.83 -0.88 41.75 C-0.69 42.41 -0.51 43.07 -0.32 43.75 C0.44 46.59 1 49.03 1 52 C0.01 52 -0.98 52 -2 52 C-2 53.65 -2 55.3 -2 57 C-7.8 51.2 -9 39.79 -11 32 C-11.11 32.55 -11.22 33.1 -11.34 33.66 C-11.84 36.17 -12.36 38.68 -12.88 41.19 C-13.05 42.05 -13.22 42.92 -13.4 43.81 C-15.64 54.64 -15.64 54.64 -18 57 C-17.67 57.66 -17.34 58.32 -17 59 C-17.25 61.57 -17.56 64.08 -17.94 66.62 C-18.04 67.33 -18.14 68.04 -18.24 68.77 C-18.49 70.51 -18.74 72.26 -19 74 C-19.33 72.68 -19.66 71.36 -20 70 C-21.32 70 -22.64 70 -24 70 C-24.33 70.66 -24.66 71.32 -25 72 C-25.36 58.9 -25.36 58.9 -23.63 53.15 C-22.8 50.32 -22.2 47.45 -21.56 44.56 C-20.35 39.23 -18.83 34.15 -17 29 C-17.66 29 -18.32 29 -19 29 C-19.31 29.58 -19.63 30.16 -19.95 30.76 C-21.87 34.26 -23.76 37.66 -26.06 40.94 C-28.68 45.08 -30.29 49.42 -32 54 C-32.34 54.86 -32.68 55.71 -33.04 56.6 C-36.59 65.78 -38.82 75.23 -39.5 85.06 C-39.8 89.08 -40.27 91.85 -43 95 C-44.48 95.5 -44.48 95.5 -46 96 C-49.41 74.03 -41.2 49.1 -28.93 30.94 C-27.8 29.49 -26.63 28.07 -25.41 26.69 C-22.5 23.2 -21.79 20.7 -22.06 16.19 C-22.15 10.84 -21.38 6.57 -17.61 2.5 C-11.82 -2.64 -7.01 -2.57 0 0 Z " fill="#199293" transform="translate(52,8)"/>
<path d="M0 0 C0.99 1.48 0.99 1.48 2 3 C3.32 3 4.64 3 6 3 C6.33 2.34 6.66 1.68 7 1 C6.91 18.78 -4.3 39.69 -15.64 52.91 C-17.36 55.55 -17.46 57.44 -17.62 60.56 C-17.8 63.68 -18.01 66.02 -19 69 C-19.66 69 -20.32 69 -21 69 C-21.21 69.62 -21.41 70.24 -21.62 70.88 C-23 73 -23 73 -25.69 74.31 C-29 75 -29 75 -32.5 74.44 C-37.97 73.75 -40.79 76.09 -45.06 79.31 C-49.99 82.95 -57.78 88 -64 88 C-64.33 85.69 -64.66 83.38 -65 81 C-63.55 80.41 -63.55 80.41 -62.06 79.81 C-56.43 77.4 -51.1 74.4 -46 71 C-51.43 71.39 -56.74 71.87 -62.06 73.06 C-67.08 74.15 -71.89 74.2 -77 74 C-77 73.67 -77 73.34 -77 73 C-75.02 73 -73.04 73 -71 73 C-71 71.68 -71 70.36 -71 69 C-72.65 69 -74.3 69 -76 69 C-76.33 68.34 -76.66 67.68 -77 67 C-76.25 66.91 -75.5 66.83 -74.72 66.74 C-71.33 66.35 -67.95 65.96 -64.56 65.56 C-63.38 65.43 -62.19 65.29 -60.97 65.15 C-59.85 65.02 -58.73 64.89 -57.57 64.75 C-56.52 64.63 -55.48 64.51 -54.41 64.39 C-52.05 64.25 -52.05 64.25 -51 63 C-49.33 62.96 -47.67 62.96 -46 63 C-46 62.34 -46 61.68 -46 61 C-46.66 61 -47.32 61 -48 61 C-48.1 60.22 -48.21 59.43 -48.31 58.62 C-48.78 55.67 -48.78 55.67 -52 54 C-49.03 54 -46.06 54 -43 54 C-42.34 52.68 -41.68 51.36 -41 50 C-37.88 48.25 -37.88 48.25 -35 47 C-35.84 42.59 -36.87 38.23 -37.94 33.88 C-38.11 33.16 -38.28 32.44 -38.45 31.71 C-39.28 28.33 -40.05 25.92 -42 23 C-45.12 23.98 -46.91 24.91 -49.25 27.25 C-52.74 30.74 -56.57 33.79 -61 36 C-61.99 35.67 -62.98 35.34 -64 35 C-64.5 33.51 -64.5 33.51 -65 32 C-53.86 20.53 -53.86 20.53 -47 19 C-42.33 19 -37.88 19.23 -34 22 C-32.93 24.56 -32.11 26.91 -31.38 29.56 C-31.16 30.28 -30.95 31 -30.73 31.75 C-29.6 35.6 -28.65 39.44 -27.88 43.38 C-27.38 47.24 -27.38 47.24 -24 49 C-19.49 46.81 -17.94 44.59 -16 40 C-15.34 40 -14.68 40 -14 40 C-13.9 39.42 -13.79 38.84 -13.69 38.25 C-13 36 -13 36 -11.58 34.16 C-9.92 31.89 -8.99 29.82 -8 27.19 C-6.9 24.3 -5.76 21.49 -4.48 18.67 C-2.92 14.8 -2.05 11.15 -1.31 7.06 C-1.12 6.04 -1.12 6.04 -0.92 4.99 C-0.61 3.33 -0.3 1.66 0 0 Z " fill="#1D9D83" transform="translate(227,120)"/>
<path d="M0 0 C3.87 1.77 3.87 1.77 5.06 3.81 C5 6 5 6 3 8.31 C2 9.21 1 10.11 0 11 C-4.27 15.14 -8.27 19.36 -12 24 C-10.5 27.11 -8.79 30.05 -7 33 C-5.66 35.68 -6.19 37.46 -6.44 40.44 C-6.56 47.2 -4.05 50.61 0.25 55.62 C2 58 2 58 2 62 C0 62 0 62 -2.56 59.62 C-5 57 -5 57 -6 55 C-6.66 55 -7.32 55 -8 55 C-8.66 53.35 -9.32 51.7 -10 50 C-10.88 50.08 -11.76 50.17 -12.67 50.25 C-14.41 50.41 -14.41 50.41 -16.19 50.56 C-17.91 50.72 -17.91 50.72 -19.67 50.88 C-22.69 50.99 -25.09 50.74 -28 50 C-28.23 50.76 -28.45 51.53 -28.69 52.31 C-29.75 55.3 -30.93 57.97 -32.31 60.81 C-35.77 68.25 -37.83 76.11 -40 84 C-40.33 83.01 -40.66 82.02 -41 81 C-43.02 80.27 -43.02 80.27 -45 80 C-45.49 80.99 -45.49 80.99 -46 82 C-46.47 76.3 -44.81 71.92 -42.81 66.69 C-42.5 65.84 -42.18 64.98 -41.86 64.11 C-40.24 59.85 -38.56 55.96 -36.06 52.12 C-33.23 47.57 -33.86 43.17 -34.08 37.96 C-33.97 33.96 -32.64 31.94 -30 29 C-29.4 28.46 -28.8 27.92 -28.19 27.37 C-26.59 24.83 -26.59 24.83 -28.02 21.14 C-28.6 19.65 -29.2 18.16 -29.81 16.69 C-32.05 11.2 -33.4 6.97 -33 1 C-30.66 1.11 -30.66 1.11 -28 2 C-26.52 4.73 -26.52 4.73 -25.38 8.19 C-23.85 12.66 -22.2 16.81 -20 21 C-17.49 20.3 -17.49 20.3 -15 19 C-14.67 17.67 -14.33 16.33 -14 15 C-12.6 13.17 -12.6 13.17 -10.84 11.33 C-10.21 10.66 -9.58 10 -8.94 9.32 C-8.28 8.63 -7.62 7.95 -6.94 7.25 C-6.27 6.55 -5.61 5.86 -4.93 5.14 C-3.29 3.42 -1.65 1.71 0 0 Z M-15 22 C-15 22.66 -15 23.32 -15 24 C-14.34 23.67 -13.68 23.34 -13 23 C-13.66 22.67 -14.32 22.34 -15 22 Z " fill="#0F879C" transform="translate(82,58)"/>
<path d="M0 0 C4.28 3.24 8.91 6.87 9.68 12.42 C9.81 18.43 9.73 22.68 5.82 27.4 C4.31 28.75 4.31 28.75 1.06 30.31 C-2.54 33.51 -2.2 35.22 -2.5 39.94 C-2.53 41.19 -2.55 42.44 -2.58 43.73 C-2.69 46.75 -2.69 46.75 -3.69 47.75 C-3.66 49.75 -3.62 51.75 -3.53 53.74 C-3.69 55.75 -3.69 55.75 -5.69 58.75 C-7.01 58.75 -8.33 58.75 -9.69 58.75 C-10.02 59.41 -10.35 60.07 -10.69 60.75 C-10.69 55.8 -10.69 50.85 -10.69 45.75 C-10.36 45.75 -10.03 45.75 -9.69 45.75 C-9.49 39.67 -9.49 39.67 -10.69 33.75 C-12.01 33.42 -13.33 33.09 -14.69 32.75 C-14.77 33.3 -14.85 33.85 -14.93 34.42 C-15.94 37.53 -17.67 39.49 -19.75 42 C-20.48 42.89 -21.22 43.78 -21.97 44.7 C-22.54 45.38 -23.1 46.05 -23.69 46.75 C-24.02 46.09 -24.35 45.43 -24.69 44.75 C-27.66 45.25 -27.66 45.25 -30.69 45.75 C-30.03 44.43 -29.37 43.11 -28.69 41.75 C-28.03 41.75 -27.37 41.75 -26.69 41.75 C-26.32 40.67 -26.32 40.67 -25.94 39.56 C-24.69 36.75 -24.69 36.75 -22.5 34.38 C-20.35 31.8 -20.35 31.8 -20.75 28.25 C-21.47 24.8 -21.47 24.8 -23.25 22.44 C-25.46 18.3 -25.35 14.34 -24.69 9.75 C-22.06 4.49 -18.45 1.32 -13.38 -1.56 C-8.63 -2.78 -4.41 -2.05 0 0 Z " fill="#2FB757" transform="translate(238.6875,64.25)"/>
<path d="M0 0 C2.69 2 2.69 2 4 4 C3.34 5.32 2.68 6.64 2 8 C1.49 7.63 0.98 7.27 0.46 6.89 C-3.09 5.61 -5.84 6.72 -9.31 7.75 C-20.18 10.71 -31.09 11.96 -42.31 12.69 C-43.42 12.76 -43.42 12.76 -44.54 12.83 C-49.75 13.12 -49.75 13.12 -52 12 C-44.63 19.37 -23.02 21.2 -12.75 21.82 C-11 22 -11 22 -9 23 C-7.32 23.07 -5.63 23.08 -3.94 23.06 C-2.91 23.05 -1.89 23.05 -0.83 23.04 C1.31 23.01 3.46 22.99 5.6 22.96 C12.46 22.91 19.18 23.24 26 24 C26 25.32 26 26.64 26 28 C19.55 30.33 13.44 30.31 6.62 30.25 C5.47 30.24 4.32 30.24 3.13 30.23 C-8.74 30.1 -20.43 29.55 -31.76 25.71 C-34.1 24.97 -36.39 24.5 -38.81 24.06 C-47.49 22.42 -55.99 19.73 -64 16 C-63.34 15.67 -62.68 15.34 -62 15 C-62.66 12.03 -63.32 9.06 -64 6 C-49.15 5.5 -49.15 5.5 -34 5 C-34 4.67 -34 4.34 -34 4 C-33.37 3.91 -32.75 3.83 -32.1 3.74 C-29.28 3.35 -26.45 2.96 -23.62 2.56 C-22.64 2.43 -21.66 2.29 -20.64 2.15 C-19.7 2.02 -18.76 1.89 -17.79 1.75 C-16.49 1.57 -16.49 1.57 -15.15 1.39 C-4.58 -0.52 -4.58 -0.52 0 0 Z " fill="#0D81AF" transform="translate(130,165)"/>
<path d="M0 0 C1.32 0.41 1.32 0.41 2.66 0.82 C4.78 1.53 6.88 2.29 8.96 3.08 C12.2 4.25 15.22 5.28 18.62 5.81 C21.94 3.66 21.94 3.66 24.62 0.81 C27.81 -0.1 30.43 -0.04 33.62 0.81 C37.92 3.38 40.89 6.34 43.12 10.81 C43.62 13.81 43.62 13.81 43.26 17.21 C43.24 21.02 43.24 21.02 46.36 23.32 C47.54 24.07 48.73 24.8 49.94 25.5 C57.21 29.95 57.21 29.95 59.62 33.81 C59.3 34.14 58.97 34.47 58.62 34.81 C59.28 35.47 59.94 36.13 60.62 36.81 C60.13 37.8 60.13 37.8 59.62 38.81 C56.78 37.48 54.36 35.97 51.88 34.06 C50.85 33.28 50.85 33.28 49.8 32.48 C48.72 31.65 48.72 31.65 47.62 30.81 C46.13 29.69 44.63 28.56 43.12 27.44 C41.96 26.56 40.79 25.69 39.62 24.81 C38.78 25.31 37.93 25.8 37.06 26.31 C32.13 28.46 28.34 28.28 23.19 26.88 C18.97 26.8 18.41 27.47 15.38 30.19 C14.41 31.16 14.41 31.16 13.42 32.15 C11.62 33.81 11.62 33.81 8.62 34.81 C8.62 33.82 8.62 32.83 8.62 31.81 C7.64 31.48 6.64 31.15 5.62 30.81 C7.06 27.32 8.79 25.77 11.81 23.56 C14.85 21.14 14.85 21.14 15.93 17.58 C15.64 15.12 15.64 15.12 14.62 11.81 C13.98 11.63 13.34 11.45 12.68 11.26 C8.63 10.08 4.66 8.92 0.81 7.19 C-1.98 5.98 -4.39 5.27 -7.38 4.81 C-7.38 3.16 -7.38 1.51 -7.38 -0.19 C-3.99 -1.32 -3.27 -1.07 0 0 Z " fill="#1D9C82" transform="translate(77.375,28.1875)"/>
<path d="M0 0 C0.74 -0.02 1.49 -0.05 2.25 -0.07 C6.25 -0.06 8.86 0.33 12.04 2.86 C15.3 6.27 16.87 8.92 17.62 13.56 C17.36 19.45 14.87 23.51 10.62 27.56 C5.57 30.46 2.27 31.03 -3.38 29.56 C-8.48 27.39 -12.48 23.24 -15.38 18.56 C-16.4 14.21 -15.93 10.81 -14.12 6.75 C-13.55 6.03 -12.97 5.31 -12.38 4.56 C-11.85 3.87 -11.33 3.18 -10.79 2.46 C-7.37 -0.23 -4.17 -0.06 0 0 Z " fill="#2FB657" transform="translate(180.375,-0.5625)"/>
<path d="M0 0 C4.07 2.04 7.07 4.52 9.5 8.38 C10.52 13.74 10.85 17.96 8.25 22.81 C5.76 26.34 3.9 28.5 -0.33 29.62 C-6.21 30.23 -9.88 30.07 -15 27 C-18.03 23.8 -20.91 20.36 -21.08 15.82 C-20.54 11.25 -20.08 7.6 -17 4 C-11.64 -0.04 -6.67 -1.38 0 0 Z M-13 7 C-14.92 10.16 -16.18 12.48 -15.73 16.23 C-15.25 18.18 -14.63 20.1 -14 22 C-13.34 22 -12.68 22 -12 22 C-12.01 21.25 -12.02 20.5 -12.04 19.73 C-12.05 18.26 -12.05 18.26 -12.06 16.75 C-12.07 15.78 -12.09 14.8 -12.1 13.8 C-12.01 11.34 -11.71 9.34 -11 7 C-9.56 7.11 -8.12 7.24 -6.69 7.38 C-5.49 7.48 -5.49 7.48 -4.26 7.59 C-2 8 -2 8 1 10 C0.84 10.6 0.67 11.2 0.5 11.81 C-0.42 15.84 0.4 18.3 2 22 C3.95 20.37 4.9 19.43 5.47 16.91 C5.53 12.47 5.48 10.61 2.62 7 C-2.64 2.99 -7.73 2.58 -13 7 Z M-7 11 C-7 11.66 -7 12.32 -7 13 C-5.68 13 -4.36 13 -3 13 C-3 12.34 -3 11.68 -3 11 C-4.32 11 -5.64 11 -7 11 Z M-7 17 C-7.1 17.78 -7.21 18.57 -7.31 19.38 C-8 22 -8 22 -11 24 C-8.15 25.94 -6.85 25.99 -3.31 25.75 C-1.67 25.38 -1.67 25.38 0 25 C0.33 24.34 0.66 23.68 1 23 C0.01 22.67 -0.98 22.34 -2 22 C-3.19 19.44 -3.19 19.44 -4 17 C-4.99 17 -5.98 17 -7 17 Z " fill="#006DC6" transform="translate(846,140)"/>
<path d="M0 0 C1.32 1.32 2.64 2.64 4 4 C-3.15 14.04 -11.59 24.02 -21 32 C-21.99 32 -22.98 32 -24 32 C-24.21 32.58 -24.41 33.16 -24.62 33.75 C-26.51 36.84 -28.95 38.11 -32 40 C-32.7 40.6 -33.4 41.2 -34.12 41.81 C-36 43 -36 43 -38.19 42.81 C-40 42 -40 42 -41 40 C-41.84 40.25 -41.84 40.25 -42.69 40.5 C-45 41 -45 41 -47.62 40.94 C-50.19 40.73 -50.19 40.73 -52 43 C-54.8 40.23 -57.59 37.45 -60.38 34.67 C-61.79 33.27 -63.21 31.86 -64.63 30.46 C-65.52 29.57 -66.41 28.68 -67.33 27.77 C-68.15 26.95 -68.98 26.13 -69.82 25.29 C-71.75 23.27 -73.49 21.35 -75 19 C-74.69 16.75 -74.69 16.75 -74 15 C-70 19.75 -70 19.75 -70 22 C-69.34 22 -68.68 22 -68 22 C-67.67 21.01 -67.34 20.02 -67 19 C-65.83 20.29 -64.66 21.58 -63.5 22.88 C-62.85 23.59 -62.2 24.31 -61.53 25.05 C-60 27 -60 27 -60 29 C-59.11 29.38 -59.11 29.38 -58.21 29.77 C-55.79 31.11 -54.48 32.54 -52.69 34.62 C-49.96 37.44 -49.38 37.95 -45.31 38.5 C-43.67 38.25 -43.67 38.25 -42 38 C-40.82 37.85 -40.82 37.85 -39.62 37.69 C-39.09 37.46 -38.55 37.23 -38 37 C-37.67 36.01 -37.34 35.02 -37 34 C-35.34 33.05 -33.68 32.11 -32 31.21 C-28.35 29 -25.38 26.06 -22.31 23.12 C-21.28 22.15 -21.28 22.15 -20.22 21.15 C-14.48 15.65 -9.3 9.78 -4.26 3.63 C-2 1 -2 1 0 0 Z M1 3 C2 5 2 5 2 5 Z " fill="#189091" transform="translate(152,98)"/>
<path d="M0 0 C2.06 2.25 2.06 2.25 4 5 C3.75 7.31 3.75 7.31 3 9 C3.54 9.08 4.07 9.16 4.62 9.25 C7.84 10.26 10.26 12.07 13 14 C12.34 15.32 11.68 16.64 11 18 C6.48 18 4.12 15.18 0.67 12.43 C-1.93 10.75 -1.93 10.75 -4.97 11.08 C-8.28 12.08 -10.72 13.45 -13.62 15.31 C-18.73 18.41 -23.62 20.43 -29.32 22.17 C-31.53 22.85 -33.58 23.62 -35.69 24.56 C-45.91 29 -45.91 29 -51 29 C-51 27.68 -51 26.36 -51 25 C-52.32 24.67 -53.64 24.34 -55 24 C-50.09 21.92 -45.14 20.03 -40.09 18.32 C-39.22 18.02 -38.34 17.72 -37.44 17.41 C-35.67 16.81 -33.9 16.22 -32.13 15.64 C-27.21 13.97 -23.27 12.05 -19 9 C-17.78 8.53 -16.57 8.05 -15.31 7.56 C-11.83 6.32 -11.83 6.32 -10.56 3.31 C-10.05 2.55 -9.53 1.79 -9 1 C-6.25 0.59 -3.79 0.82 -1 1 C-0.67 0.67 -0.34 0.34 0 0 Z " fill="#10899F" transform="translate(111,137)"/>
<path d="M0 0 C1.32 0.66 2.64 1.32 4 2 C3.5 6.57 2.47 9.24 -0.31 12.88 C-10.26 26.54 -15.33 44.3 -16.5 61.06 C-16.8 65.08 -17.27 67.85 -20 71 C-21.48 71.5 -21.48 71.5 -23 72 C-26.37 50.29 -18.43 24.24 -5.64 6.58 C-3.83 4.3 -1.99 2.11 0 0 Z " fill="#0D80AF" transform="translate(29,32)"/>
<path d="M0 0 C1 3 1 3 0 6 C-2.5 7.01 -4.86 7.82 -7.44 8.56 C-8.11 8.77 -8.79 8.98 -9.48 9.19 C-11.64 9.84 -13.81 10.43 -16 11 C-16.73 11.19 -17.47 11.39 -18.22 11.59 C-25.26 13.23 -32.26 13.31 -39.45 13.26 C-41.5 13.25 -43.54 13.26 -45.59 13.27 C-61.16 13.29 -61.16 13.29 -67 11 C-67.66 10.01 -68.32 9.02 -69 8 C-68.01 6.68 -67.02 5.36 -66 4 C-64.75 4.22 -64.75 4.22 -63.46 4.44 C-44.95 7.39 -25.8 6.93 -8.04 0.59 C-3.28 -1.09 -3.28 -1.09 0 0 Z " fill="#118AA6" transform="translate(163,203)"/>
<path d="M0 0 C4.4 1.36 6.13 3.03 8.69 6.81 C10.95 10.1 13.22 13.32 15.74 16.41 C16.2 16.97 16.66 17.54 17.13 18.13 C18.02 19.23 18.93 20.32 19.85 21.41 C22.76 25.03 23.5 27.39 23 32 C15.6 32.45 10.33 31.88 4.6 26.93 C-0.15 22.15 -3.17 18.34 -3.29 11.47 C-2.81 7.41 -1.6 3.75 0 0 Z " fill="#006DC6" transform="translate(21,159)"/>
<path d="M0 0 C0.66 0.99 1.32 1.98 2 3 C3.32 3 4.64 3 6 3 C6.33 2.34 6.66 1.68 7 1 C6.92 18.37 -3.73 37.51 -14 51 C-14.99 51.5 -14.99 51.5 -16 52 C-17.32 51.01 -18.64 50.02 -20 49 C-18.8 45.92 -17.52 42.94 -16 40 C-15.34 40 -14.68 40 -14 40 C-13.85 39.13 -13.85 39.13 -13.69 38.25 C-13 36 -13 36 -11.58 34.16 C-9.92 31.89 -8.99 29.82 -8 27.19 C-6.9 24.3 -5.76 21.49 -4.48 18.67 C-2.92 14.8 -2.05 11.15 -1.31 7.06 C-1.18 6.38 -1.05 5.69 -0.92 4.99 C-0.61 3.33 -0.3 1.66 0 0 Z " fill="#23A775" transform="translate(227,120)"/>
<path d="M0 0 C0.33 0 0.66 0 1 0 C1.33 1.65 1.66 3.3 2 5 C3.32 5 4.64 5 6 5 C6.03 7.21 6.05 9.42 6.06 11.62 C6.07 12.85 6.09 14.08 6.1 15.35 C6 19 6 19 5.51 21.69 C4.89 25.7 4.77 29.62 4.68 33.68 C4.66 34.49 4.64 35.31 4.62 36.14 C4.56 38.72 4.5 41.3 4.44 43.88 C4.39 45.63 4.35 47.39 4.31 49.14 C4.2 53.43 4.1 57.71 4 62 C3.67 62 3.34 62 3 62 C3 57.38 3 52.76 3 48 C1.02 48.5 1.02 48.5 -1 49 C-2.62 44.14 -2.19 39.15 -2.19 34.06 C-2.19 32.91 -2.19 31.75 -2.19 30.56 C-2.13 20.28 -1.29 10.19 0 0 Z " fill="#1081B4" transform="translate(26,73)"/>
<path d="M0 0 C3.88 1.75 3.88 1.75 5 4 C4.96 10.23 4.69 21.31 0 26 C0.33 26.66 0.66 27.32 1 28 C0.75 30.57 0.44 33.08 0.06 35.62 C-0.09 36.68 -0.09 36.68 -0.24 37.77 C-0.49 39.51 -0.74 41.26 -1 43 C-1.33 41.68 -1.66 40.36 -2 39 C-3.32 39 -4.64 39 -6 39 C-6.33 39.66 -6.66 40.32 -7 41 C-7.36 27.91 -7.36 27.91 -5.64 22.16 C-4.79 19.28 -4.16 16.37 -3.5 13.44 C-2.46 8.91 -1.34 4.45 0 0 Z " fill="#118BA1" transform="translate(34,39)"/>
<path d="M0 0 C0 1.32 0 2.64 0 4 C-6.62 6.41 -13.01 6.33 -20 6.31 C-21.15 6.33 -22.3 6.34 -23.48 6.36 C-29.77 6.36 -34.46 6.05 -40 3 C-40 2.01 -40 1.02 -40 0 C-26.79 -1.63 -13.21 -1.63 0 0 Z " fill="#108AA2" transform="translate(156,189)"/>
<path d="M0 0 C4.62 0.66 9.24 1.32 14 2 C14 2.33 14 2.66 14 3 C21.59 3.33 29.18 3.66 37 4 C37.5 6.47 37.5 6.47 38 9 C34.05 9.05 30.11 9.09 26.16 9.11 C24.17 9.12 22.18 9.15 20.19 9.18 C4.75 9.25 4.75 9.25 -1 7 C-1.66 6.01 -2.32 5.02 -3 4 C-2.01 2.68 -1.02 1.36 0 0 Z " fill="#0A7DAC" transform="translate(97,207)"/>
<path d="M0 0 C1.94 0.81 1.94 0.81 4 2 C5.35 6.05 4.17 7.31 2.38 11.12 C-1.29 19.17 -3.67 27.49 -6 36 C-6.49 34.51 -6.49 34.51 -7 33 C-9.02 32.27 -9.02 32.27 -11 32 C-11.33 32.66 -11.66 33.32 -12 34 C-12.47 28.3 -10.81 23.91 -8.81 18.69 C-8.5 17.85 -8.18 17 -7.86 16.14 C-5.68 10.45 -3.23 5.18 0 0 Z " fill="#0C80AF" transform="translate(48,106)"/>
<path d="M0 0 C2.34 0.29 4.67 0.62 7 1 C7.66 2.98 8.32 4.96 9 7 C8.03 7.12 7.07 7.24 6.07 7.37 C-2.67 8.48 -2.67 8.48 -11.31 10.12 C-16.23 11.18 -20.99 11.19 -26 11 C-26 10.67 -26 10.34 -26 10 C-24.02 10 -22.04 10 -20 10 C-20 8.68 -20 7.36 -20 6 C-21.65 6 -23.3 6 -25 6 C-25.33 5.34 -25.66 4.68 -26 4 C-25.25 3.91 -24.5 3.83 -23.72 3.74 C-20.33 3.35 -16.95 2.96 -13.56 2.56 C-12.38 2.43 -11.19 2.29 -9.97 2.15 C-8.85 2.02 -7.73 1.89 -6.57 1.75 C-5 1.57 -5 1.57 -3.41 1.39 C-1.05 1.25 -1.05 1.25 0 0 Z " fill="#1B9799" transform="translate(176,183)"/>
<path d="M0 0 C2.69 2 2.69 2 4 4 C3.34 5.32 2.68 6.64 2 8 C1.5 7.63 1 7.26 0.48 6.88 C-3.18 5.58 -6.16 6.8 -9.75 7.88 C-15.36 9.53 -20.13 10.22 -26 10 C-26.21 9.36 -26.41 8.72 -26.62 8.06 C-27.9 5.65 -27.9 5.65 -31.12 5.25 C-32.07 5.17 -33.02 5.09 -34 5 C-34 4.67 -34 4.34 -34 4 C-33.37 3.91 -32.75 3.83 -32.1 3.74 C-29.28 3.35 -26.45 2.96 -23.62 2.56 C-22.15 2.36 -22.15 2.36 -20.64 2.15 C-19.7 2.02 -18.76 1.89 -17.79 1.75 C-16.92 1.63 -16.05 1.51 -15.15 1.39 C-4.58 -0.52 -4.58 -0.52 0 0 Z " fill="#0E889F" transform="translate(130,165)"/>
<path d="M0 0 C1.32 0.66 2.64 1.32 4 2 C3.5 6.57 2.47 9.24 -0.31 12.88 C-3.43 17.12 -5.78 21.23 -8 26 C-8.66 27.34 -9.33 28.67 -10 30 C-11.65 28.35 -13.3 26.7 -15 25 C-10.75 16.01 -6.67 7.5 0 0 Z " fill="#0F899F" transform="translate(29,32)"/>
<path d="M0 0 C1.25 2.06 1.25 2.06 2 4 C-6.36 9.39 -16.29 12.16 -26 14 C-26 12.68 -26 11.36 -26 10 C-27.32 9.67 -28.64 9.34 -30 9 C-26.68 7.64 -23.34 6.32 -20 5 C-19.35 4.74 -18.69 4.48 -18.02 4.21 C-15.89 3.35 -13.76 2.52 -11.62 1.69 C-10.94 1.41 -10.25 1.13 -9.54 0.84 C-3.21 -1.6 -3.21 -1.6 0 0 Z " fill="#0D80B0" transform="translate(86,152)"/>
<path d="M0 0 C0.33 1.32 0.66 2.64 1 4 C-0.67 4.96 -2.34 5.91 -4.02 6.86 C-5.79 7.88 -7.55 8.91 -9.31 9.94 C-21.69 17 -21.69 17 -25 17 C-25.33 14.69 -25.66 12.38 -26 10 C-25.03 9.61 -24.06 9.22 -23.06 8.81 C-19.26 7.19 -15.7 5.23 -12.11 3.18 C-7.72 0.72 -5.15 -0.23 0 0 Z " fill="#199394" transform="translate(188,191)"/>
<path d="M0 0 C3.87 1.77 3.87 1.77 5.06 3.81 C5 6 5 6 3 8.31 C2 9.21 1 10.11 0 11 C-4.27 15.14 -8.27 19.36 -12 24 C-13.32 23.01 -14.64 22.02 -16 21 C-14.64 14.87 -11.13 11.47 -6.88 7.12 C-6.22 6.44 -5.56 5.75 -4.88 5.04 C-3.26 3.35 -1.63 1.67 0 0 Z " fill="#1A9292" transform="translate(82,58)"/>
<path d="M0 0 C1.32 1.32 2.64 2.64 4 4 C-1.42 11.6 -7.29 19.61 -15 25 C-15 24.34 -15 23.68 -15 23 C-15.99 22.67 -16.98 22.34 -18 22 C-17.59 21.55 -17.18 21.11 -16.76 20.64 C-16.22 20.04 -15.68 19.44 -15.12 18.81 C-14.59 18.22 -14.06 17.63 -13.51 17.02 C-11.89 15.04 -11.89 15.04 -11.05 12.56 C-9.81 9.55 -8.19 7.65 -6 5.25 C-5.3 4.47 -4.6 3.69 -3.88 2.89 C-2 1 -2 1 0 0 Z M1 3 C2 5 2 5 2 5 Z " fill="#1C9882" transform="translate(152,98)"/>
<path d="M0 0 C3.24 -0.57 5.31 -0.44 8.11 1.35 C12.2 4.75 15.15 7.53 16 13 C15.88 15.25 15.88 15.25 15 17 C13.69 17.71 12.36 18.38 11 19 C3.54 10.03 3.54 10.03 2 4 C1.36 2.65 0.71 1.31 0 0 Z " fill="#20A473" transform="translate(105,29)"/>
<path d="M0 0 C1.32 0.66 2.64 1.32 4 2 C4 2.99 4 3.98 4 5 C3.28 5.23 2.56 5.45 1.81 5.69 C-1.11 6.86 -1.11 6.86 -3.25 9.25 C-6.74 12.74 -10.57 15.79 -15 18 C-15.99 17.67 -16.98 17.34 -18 17 C-18.33 16.01 -18.66 15.02 -19 14 C-8.22 2.89 -8.22 2.89 -1 1 C-0.67 0.67 -0.34 0.34 0 0 Z " fill="#1B9A7F" transform="translate(181,138)"/>
<path d="M0 0 C1.41 2.83 1.32 4.87 1 8 C-0.69 9.94 -0.69 9.94 -3 11 C-5.62 10.88 -5.62 10.88 -8 10 C-10.16 6.77 -10.47 5.75 -10 2 C-7.6 -2.24 -4.22 -1.02 0 0 Z " fill="#32C047" transform="translate(502,158)"/>
<path d="M0 0 C4.9 0.42 6.89 2.49 10.19 6 C13.26 9.45 13.26 9.45 17 12 C16 15 16 15 14.26 15.98 C12 16 12 16 9.46 14.05 C8.58 13.15 7.71 12.24 6.81 11.31 C5.93 10.42 5.05 9.53 4.14 8.61 C2.14 6.17 1.44 5.03 1 2 C0.67 1.34 0.34 0.68 0 0 Z " fill="#3AB389" transform="translate(135,62)"/>
<path d="M0 0 C1.71 1.62 3.37 3.29 5 5 C5 5.66 5 6.32 5 7 C5.66 7 6.32 7 7 7 C7.33 6.01 7.66 5.02 8 4 C11 8.62 11 8.62 11 12 C12.2 13.61 12.2 13.61 13.84 15.14 C14.72 16 14.72 16 15.62 16.88 C16.24 17.48 16.86 18.07 17.5 18.69 C18.12 19.29 18.74 19.9 19.38 20.53 C20.91 22.02 22.46 23.51 24 25 C23.67 25.99 23.34 26.98 23 28 C20.2 25.23 17.41 22.45 14.62 19.67 C13.21 18.27 11.79 16.86 10.37 15.46 C9.48 14.57 8.59 13.68 7.67 12.77 C6.85 11.95 6.02 11.13 5.18 10.29 C0 4.84 0 4.84 0 0 Z " fill="#218C8E" transform="translate(77,113)"/>
<path d="M0 0 C0.9 0.53 0.9 0.53 1.81 1.06 C1.62 2.88 1.62 2.88 0.81 5.06 C-1.75 6.81 -1.75 6.81 -4.19 8.06 C-4.19 7.4 -4.19 6.74 -4.19 6.06 C-6.5 7.71 -8.81 9.36 -11.19 11.06 C-11.19 6.78 -11.03 6.36 -8.38 3.38 C-7.85 2.77 -7.33 2.17 -6.79 1.55 C-4.44 -0.63 -3.01 -1.29 0 0 Z M-2.19 2.06 C-2.19 2.72 -2.19 3.38 -2.19 4.06 C-1.53 3.73 -0.87 3.4 -0.19 3.06 C-0.85 2.73 -1.51 2.4 -2.19 2.06 Z " fill="#1F9A60" transform="translate(212.1875,109.9375)"/>
<path d="M0 0 C1.94 0.81 1.94 0.81 4 2 C4.33 2.99 4.66 3.98 5 5 C6.32 5.69 7.66 6.36 9 7 C10.92 8.73 10.92 8.73 12.75 10.62 C13.36 11.26 13.98 11.89 14.61 12.54 C15.07 13.02 15.53 13.5 16 14 C15.67 14.99 15.34 15.98 15 17 C9.34 12.3 4.15 7.25 -1 2 C-0.67 1.34 -0.34 0.68 0 0 Z " fill="#16797E" transform="translate(87,122)"/>
<path d="M0 0 C1.81 1.25 1.81 1.25 2.81 3.25 C2.48 3.58 2.15 3.91 1.81 4.25 C2.47 4.91 3.13 5.57 3.81 6.25 C3.48 6.91 3.15 7.57 2.81 8.25 C-1 6.69 -3.38 4.21 -6.19 1.25 C-2.77 -0.95 -2.77 -0.95 0 0 Z " fill="#1D926C" transform="translate(134.1875,58.75)"/>
<path d="M0 0 C1.46 2.65 2 3.89 2 7 C1.01 7 0.02 7 -1 7 C-1 8.65 -1 10.3 -1 12 C-3.48 9.52 -4.03 7.34 -5 4 C-5 3.34 -5 2.68 -5 2 C-3.35 1.34 -1.7 0.68 0 0 Z " fill="#1B989E" transform="translate(51,53)"/>
<path d="M0 0 C2 1 2 1 2 1 Z M-1 1 C-0.34 1.66 0.32 2.32 1 3 C-0.1 4.32 -1.2 5.63 -2.31 6.94 C-2.93 7.67 -3.54 8.4 -4.18 9.15 C-6 11 -6 11 -9 12 C-9 9 -9 9 -7.25 6.96 C-6.51 6.25 -5.76 5.54 -5 4.81 C-3.89 3.74 -3.89 3.74 -2.75 2.64 C-2.17 2.1 -1.59 1.56 -1 1 Z " fill="#24AA9F" transform="translate(140,111)"/>
<path d="M0 0 C1.71 1.62 3.37 3.29 5 5 C5 5.66 5 6.32 5 7 C5.66 7 6.32 7 7 7 C7.33 6.01 7.66 5.02 8 4 C8.66 5.32 9.32 6.64 10 8 C8.35 8.66 6.7 9.32 5 10 C0 4.5 0 4.5 0 0 Z " fill="#2196AB" transform="translate(77,113)"/>
<path d="M0 0 C3.37 1.44 5.51 3.33 8 6 C7.67 6.99 7.34 7.98 7 9 C5.82 8.07 4.66 7.13 3.5 6.19 C2.53 5.4 2.53 5.4 1.53 4.61 C0 3 0 3 0 0 Z " fill="#288962" transform="translate(142,67)"/>
<path d="M0 0 C3.34 0.56 6.03 1.35 9 3 C6 5 6 5 3.31 4.62 C2.55 4.42 1.79 4.21 1 4 C0.67 2.68 0.34 1.36 0 0 Z " fill="#27AE84" transform="translate(124,55)"/>
<path d="M0 0 C0.33 0 0.66 0 1 0 C1 1.65 1 3.3 1 5 C0.67 5 0.34 5 0 5 C0 3.35 0 1.7 0 0 Z " fill="#000100" transform="translate(235,112)"/>
<path d="" fill="#32C047" transform="translate(0,0)"/>
<path d="" fill="#000100" transform="translate(0,0)"/>
<path d="" fill="#2FB657" transform="translate(0,0)"/>
<path d="" fill="#000100" transform="translate(0,0)"/>
<path d="" fill="#000100" transform="translate(0,0)"/>
<path d="" fill="#000100" transform="translate(0,0)"/>
<path d="" fill="#000100" transform="translate(0,0)"/>
<path d="" fill="#0A7DAC" transform="translate(0,0)"/>
<path d="" fill="#006DC6" transform="translate(0,0)"/>
<path d="" fill="#006DC6" transform="translate(0,0)"/>
<path d="" fill="#32C047" transform="translate(0,0)"/>
<path d="" fill="#006DC6" transform="translate(0,0)"/>
<path d="" fill="#006DC6" transform="translate(0,0)"/>
<path d="" fill="#006DC6" transform="translate(0,0)"/>
<path d="" fill="#006DC6" transform="translate(0,0)"/>
<path d="" fill="#006DC6" transform="translate(0,0)"/>
<path d="" fill="#32C047" transform="translate(0,0)"/>
<path d="" fill="#006DC6" transform="translate(0,0)"/>
<path d="" fill="#006DC6" transform="translate(0,0)"/>
<path d="" fill="#2FB657" transform="translate(0,0)"/>
<path d="" fill="#006DC6" transform="translate(0,0)"/>
<path d="" fill="#006DC6" transform="translate(0,0)"/>
<path d="" fill="#006DC6" transform="translate(0,0)"/>
<path d="" fill="#006DC6" transform="translate(0,0)"/>
<path d="" fill="#32C047" transform="translate(0,0)"/>
<path d="" fill="#006DC6" transform="translate(0,0)"/>
<path d="" fill="#006DC6" transform="translate(0,0)"/>
<path d="" fill="#006DC6" transform="translate(0,0)"/>
<path d="" fill="#32C047" transform="translate(0,0)"/>
<path d="" fill="#006DC6" transform="translate(0,0)"/>
<path d="" fill="#000100" transform="translate(0,0)"/>
</svg>
